<svg viewBox="0 0 46 46" xmlns="http://www.w3.org/2000/svg" xml:space="preserve" style="fill-rule:evenodd;clip-rule:evenodd;stroke-linejoin:round;stroke-miterlimit:2"><path d="M43.507 9.063c.824.825 1.353 2.094 1.353 3.517 0 1.388-.503 2.63-1.293 3.456v21.892c.79.826 1.293 2.068 1.293 3.456 0 2.484-1.611 4.5-3.596 4.5-.93 0-1.777-.442-2.415-1.166l-32.644-.001c-.638.725-1.486 1.167-2.415 1.167-1.985 0-3.596-2.016-3.596-4.5 0-1.388.503-2.63 1.293-3.456V16.036C.697 15.21.194 13.968.194 12.58c0-1.557.633-2.93 1.594-3.737v-16.09c0-1.674 1.084-3.032 2.423-3.032h36.873c1.338 0 2.423 1.358 2.423 3.032v16.31ZM4.321 41.471a2.216 2.216 0 0 1-.085-.265.576.576 0 0 0-.223-.336 1.719 1.719 0 0 1-.189-.154 1.507 1.507 0 0 1-.204.122c-.174.085-.298.297-.298.546 0 .323.209.585.468.585.165 0 .31-.108.394-.27.041-.081.087-.157.137-.228Zm36.908-.755a1.55 1.55 0 0 1-.225.181 1.418 1.418 0 0 1-.523.285c.151.139.284.313.389.517.083.162.228.27.394.27.258 0 .468-.262.468-.585 0-.249-.124-.461-.299-.546a1.507 1.507 0 0 1-.204-.122Zm-.017-28.803c-.058.059-.12.114-.186.163a.55.55 0 0 0-.156.189 1.957 1.957 0 0 1-.183.29c.062.094.118.196.166.305.043.098.109.18.187.234.067.046.13.098.189.154.065-.046.133-.087.204-.122.175-.085.299-.298.299-.546 0-.255-.131-.472-.312-.553a1.401 1.401 0 0 1-.208-.114ZM3.931 13.331a1.314 1.314 0 0 1 .968-.298l.006-.018a1.703 1.703 0 0 1-.721-.75.583.583 0 0 0-.101-.14 1.746 1.746 0 0 1-.17-.202 1.3 1.3 0 0 1-.225.085c-.21.058-.366.292-.366.572 0 .248.124.461.298.546.111.054.215.123.311.205Zm34.79 2.432H11.965l26.756 20.165V15.763ZM6.647 38.653h26.449L6.333 18.45s0 19.754-.001 19.753c.113.141.218.291.315.45ZM6.634 9.246h32.027l-.001-13.46H6.634v13.46Zm26.028-11.84c2.416 0 4.378 2.456 4.378 5.48 0 3.023-1.962 5.479-4.378 5.479-2.416 0-4.378-2.456-4.378-5.479 0-3.024 1.962-5.48 4.378-5.48Zm0 6.065c.258 0 .468-.262.468-.585 0-.324-.21-.586-.468-.586-.259 0-.468.262-.468.586 0 .323.209.585.468.585Zm-20-6.065c2.416 0 4.378 2.456 4.378 5.48 0 3.023-1.962 5.479-4.378 5.479-2.416 0-4.378-2.456-4.378-5.479 0-3.024 1.962-5.48 4.378-5.48Zm0 6.065c.258 0 .468-.262.468-.585 0-.324-.21-.586-.468-.586-.259 0-.468.262-.468.586 0 .323.209.585.468.585Z" style="fill:#fc7f7f" transform="matrix(1 0 0 .79904 .173 8.435)"/></svg>