<?xml version="1.0" encoding="UTF-8" standalone="no"?>
<!DOCTYPE svg PUBLIC "-//W3C//DTD SVG 1.1//EN" "http://www.w3.org/Graphics/SVG/1.1/DTD/svg11.dtd">
<svg width="100%" height="100%" viewBox="0 0 16 16" version="1.1" xmlns="http://www.w3.org/2000/svg" xmlns:xlink="http://www.w3.org/1999/xlink" xml:space="preserve" xmlns:serif="http://www.serif.com/" style="fill-rule:evenodd;clip-rule:evenodd;stroke-linejoin:round;stroke-miterlimit:2;">
    <path d="M15,3L15,13C15,14.104 14.104,15 13,15L3,15C1.896,15 1,14.104 1,13L1,3C1,1.896 1.896,1 3,1L13,1C14.104,1 15,1.896 15,3Z" style="fill:rgb(142,239,151);"/>
    <g transform="matrix(0.867327,0,0,0.821003,1.01744,1.31423)">
        <path d="M2.265,3.957C2.31,3.465 4.414,2.367 4.815,2.504C5.421,2.711 7.573,6.285 8.155,6.292C8.71,6.299 10.294,2.788 10.814,2.551C11.295,2.331 13.459,3.495 13.627,4.004C13.924,4.904 9.882,8.741 9.515,9.26C9.229,9.664 10.081,13.607 9.809,13.929C9.39,14.423 6.874,14.376 6.624,14.068C6.244,13.597 6.955,9.622 6.542,9.191C5.228,7.818 2.205,4.6 2.265,3.957Z" style="fill:rgb(52,149,116);"/>
    </g>
</svg>
