<?xml version="1.0" encoding="UTF-8" standalone="no"?>
<svg
   width="100%"
   height="100%"
   viewBox="0 0 16 16"
   version="1.1"
   xml:space="preserve"
   style="fill-rule:evenodd;clip-rule:evenodd;stroke-linejoin:round;stroke-miterlimit:2;"
   id="svg1"
   sodipodi:docname="YPersistentID.svg.2025_03_19_19_36_46.0.svg"
   inkscape:version="1.4 (e7c3feb100, 2024-10-09)"
   xmlns:inkscape="http://www.inkscape.org/namespaces/inkscape"
   xmlns:sodipodi="http://sodipodi.sourceforge.net/DTD/sodipodi-0.dtd"
   xmlns="http://www.w3.org/2000/svg"
   xmlns:svg="http://www.w3.org/2000/svg"><defs
   id="defs1" /><sodipodi:namedview
   id="namedview1"
   pagecolor="#ffffff"
   bordercolor="#000000"
   borderopacity="0.25"
   inkscape:showpageshadow="2"
   inkscape:pageopacity="0.0"
   inkscape:pagecheckerboard="0"
   inkscape:deskcolor="#d1d1d1"
   inkscape:zoom="54.3125"
   inkscape:cx="8"
   inkscape:cy="8"
   inkscape:window-width="2048"
   inkscape:window-height="1080"
   inkscape:window-x="0"
   inkscape:window-y="0"
   inkscape:window-maximized="1"
   inkscape:current-layer="svg1" />
    
<path
   id="rect1"
   style="fill:#e6e6e6;stroke-width:10;stroke-linecap:round;paint-order:stroke fill markers"
   d="M 3.140625 0.9765625 C 2.032625 0.9765625 1.140625 1.8685625 1.140625 2.9765625 L 1.140625 13.097656 C 1.140625 14.205656 2.032625 15.097656 3.140625 15.097656 L 12.802734 15.097656 C 13.910734 15.097656 14.802734 14.205656 14.802734 13.097656 L 14.802734 2.9765625 C 14.802734 1.8685625 13.910734 0.9765625 12.802734 0.9765625 L 3.140625 0.9765625 z M 4.3066406 3.4082031 C 5.0427439 3.4082031 5.6067394 3.662062 6 4.1699219 C 6.3983025 4.6687127 6.5976562 5.4164807 6.5976562 6.4140625 C 6.5976563 6.9581981 6.5425603 7.4244892 6.4316406 7.8144531 C 6.3257627 8.195348 6.1696046 8.5090452 5.9628906 8.7539062 C 5.7612184 8.9896983 5.5150809 9.1626573 5.2226562 9.2714844 C 4.9302316 9.3803118 4.5985204 9.4335938 4.2304688 9.4335938 L 3.6640625 9.4335938 C 3.6588295 9.4337249 3.6536875 9.4334853 3.6484375 9.4335938 L 3.6484375 12.929688 L 2.9921875 12.929688 L 2.9921875 12.933594 L 2.2578125 12.933594 L 2.2578125 3.6425781 C 2.4645264 3.5518887 2.6932223 3.4920508 2.9453125 3.4648438 C 3.2024445 3.4285688 3.4386348 3.410156 3.6503906 3.4101562 C 3.7509946 3.4101562 3.8472063 3.4162913 3.9414062 3.4257812 C 4.0696103 3.4151132 4.1917858 3.4082031 4.3066406 3.4082031 z M 11 3.4082031 C 11.428553 3.4082031 11.82172 3.507515 12.179688 3.7070312 C 12.537656 3.8974788 12.844429 4.1927643 13.101562 4.5917969 C 13.358694 4.9817608 13.558009 5.4802676 13.699219 6.0878906 C 13.840391 6.6864399 13.912109 7.3927807 13.912109 8.2089844 C 13.912109 9.0251877 13.84039 9.7380855 13.699219 10.345703 C 13.558049 10.944252 13.358693 11.442764 13.101562 11.841797 C 12.844429 12.231761 12.537657 12.527045 12.179688 12.726562 C 11.82172 12.917009 11.428553 13.011719 11 13.011719 C 10.891847 13.011719 10.778193 13.005594 10.658203 12.996094 C 10.656303 12.995949 10.654144 12.996241 10.652344 12.996094 C 10.551448 13.007574 10.446942 13.013672 10.341797 13.013672 C 10.130041 13.013672 9.8958034 12.995264 9.6386719 12.958984 C 9.3865815 12.931777 9.1578857 12.873893 8.9511719 12.783203 L 8.9511719 3.6425781 C 9.1578857 3.5518892 9.3865815 3.4920508 9.6386719 3.4648438 C 9.8958034 3.4285688 10.130041 3.4101562 10.341797 3.4101562 C 10.437532 3.4101562 10.53279 3.4158213 10.625 3.4257812 C 10.756622 3.4145932 10.882379 3.4082031 11 3.4082031 z M 7.5429688 3.5019531 L 8.2773438 3.5019531 L 8.2773438 12.929688 L 7.6191406 12.929688 L 7.6191406 12.933594 L 6.8867188 12.933594 L 6.8867188 3.5058594 L 7.5429688 3.5058594 L 7.5429688 3.5019531 z M 10.599609 4.5761719 C 10.592809 4.5766519 10.582672 4.5776157 10.576172 4.578125 C 10.465252 4.587194 10.387177 4.5963987 10.341797 4.6054688 L 10.341797 11.814453 C 10.387175 11.823523 10.465254 11.832697 10.576172 11.841797 C 10.594612 11.843197 10.621848 11.844503 10.642578 11.845703 C 11.21939 11.77957 11.658594 11.466083 11.960938 10.90625 C 12.303779 10.262356 12.474609 9.3646442 12.474609 8.2128906 C 12.474609 7.0611369 12.303779 6.1680279 11.960938 5.5332031 C 11.651232 4.9515444 11.197315 4.6323919 10.599609 4.5761719 z M 3.9042969 4.578125 C 3.8067623 4.58478 3.7193855 4.5938668 3.6484375 4.6054688 L 3.6484375 8.3046875 C 3.85856 8.2980542 4.0515945 8.2732436 4.2246094 8.2265625 C 4.4262816 8.1630803 4.5943401 8.0618153 4.7304688 7.9257812 C 4.8716394 7.7806777 4.9810135 7.5866615 5.0566406 7.3417969 C 5.1322679 7.0969359 5.1699219 6.7832387 5.1699219 6.4023438 C 5.1699219 6.0395866 5.1294971 5.7416514 5.0488281 5.5058594 C 4.973201 5.2700673 4.8665975 5.0832996 4.7304688 4.9472656 C 4.5993819 4.8021628 4.4459944 4.7028515 4.2695312 4.6484375 C 4.1523091 4.6122915 4.0304183 4.59026 3.9042969 4.578125 z " /></svg>
