<?xml version="1.0" encoding="UTF-8" standalone="no"?>
<!DOCTYPE svg PUBLIC "-//W3C//DTD SVG 1.1//EN" "http://www.w3.org/Graphics/SVG/1.1/DTD/svg11.dtd">
<svg width="100%" height="100%" viewBox="0 0 16 16" version="1.1" xmlns="http://www.w3.org/2000/svg" xmlns:xlink="http://www.w3.org/1999/xlink" xml:space="preserve" xmlns:serif="http://www.serif.com/" style="fill-rule:evenodd;clip-rule:evenodd;stroke-linejoin:round;stroke-miterlimit:2;">
    <g transform="matrix(0.500676,0,0,0.500676,-0.24116,4.1028)">
        <path d="M13.843,9.367C13.224,12.021 10.841,14 8,14C4.689,14 2,11.311 2,8C2,4.689 4.689,2 8,2C10.862,2 13.259,4.008 13.857,6.692C14.166,6.612 14.563,6.489 14.917,6.312C15.513,6.014 16.143,5.537 16.026,4.658C15.679,2.054 16.971,0.473 17.609,-0.135C17.558,-0.452 17.531,-0.777 17.531,-1.108C17.531,-4.42 20.219,-7.108 23.531,-7.108C26.842,-7.108 29.531,-4.42 29.531,-1.108C29.531,2.203 26.842,4.892 23.531,4.892C21.375,4.892 19.484,3.753 18.426,2.044C18.125,2.576 17.868,3.359 18.006,4.394C18.213,5.95 17.476,7.004 16.489,7.696C16.312,7.821 16.126,7.932 15.937,8.031C16.126,8.13 16.312,8.241 16.489,8.365C17.476,9.058 18.213,10.112 18.006,11.667C17.88,12.611 18.082,13.345 18.347,13.87C19.388,12.09 21.321,10.892 23.531,10.892C26.842,10.892 29.531,13.581 29.531,16.892C29.531,20.204 26.842,22.892 23.531,22.892C20.219,22.892 17.531,20.204 17.531,16.892C17.531,16.646 17.546,16.402 17.575,16.163C16.925,15.532 15.685,13.962 16.026,11.403C16.143,10.524 15.513,10.048 14.917,9.75C14.558,9.57 14.155,9.446 13.843,9.367ZM23.531,12.892C21.323,12.892 19.531,14.685 19.531,16.892C19.531,19.1 21.323,20.892 23.531,20.892C25.738,20.892 27.531,19.1 27.531,16.892C27.531,14.685 25.738,12.892 23.531,12.892ZM8,4C5.792,4 4,5.792 4,8C4,10.208 5.792,12 8,12C10.208,12 12,10.208 12,8C12,5.792 10.208,4 8,4ZM23.531,-5.108C21.323,-5.108 19.531,-3.316 19.531,-1.108C19.531,1.099 21.323,2.892 23.531,2.892C25.738,2.892 27.531,1.099 27.531,-1.108C27.531,-3.316 25.738,-5.108 23.531,-5.108Z" style="fill:rgb(224,224,224);"/>
    </g>
</svg>
