<?xml version="1.0" encoding="UTF-8" standalone="no"?>
<!DOCTYPE svg PUBLIC "-//W3C//DTD SVG 1.1//EN" "http://www.w3.org/Graphics/SVG/1.1/DTD/svg11.dtd">
<svg width="100%" height="100%" viewBox="0 0 16 16" version="1.1" xmlns="http://www.w3.org/2000/svg" xmlns:xlink="http://www.w3.org/1999/xlink" xml:space="preserve" xmlns:serif="http://www.serif.com/" style="fill-rule:evenodd;clip-rule:evenodd;stroke-linejoin:round;stroke-miterlimit:2;">
    <g transform="matrix(0.500676,0,0,0.500676,-0.24116,4.1028)">
        <path d="M18.439,20.066C17.864,19.145 17.531,18.057 17.531,16.892C17.531,16.646 17.546,16.402 17.575,16.163C16.925,15.532 15.685,13.962 16.026,11.403C16.143,10.524 15.39,6.474 14.917,3.984C14.843,3.589 13.784,0.932 13.473,0.852C12.854,3.506 10.471,5.486 7.629,5.486C4.318,5.486 1.629,2.797 1.629,-0.514C1.629,-3.826 4.318,-6.514 7.629,-6.514C10.492,-6.514 12.888,-4.506 13.486,-1.822C13.796,-1.902 14.162,-1.871 14.516,-2.048C15.031,-2.306 15.912,-2.096 16.743,-1.747C17.444,-1.453 17.631,-1.611 17.654,-1.942C17.839,-4.605 20.219,-7.108 23.531,-7.108C26.842,-7.108 29.531,-4.42 29.531,-1.108C29.531,2.203 26.842,4.892 23.531,4.892C21.375,4.892 19.484,3.753 18.426,2.044C17.645,1.111 17.216,0.513 15.779,0.655C15.563,0.676 16.412,1.77 16.489,1.972C17.427,4.427 17.947,9.754 18.032,10.896C18.546,10.396 19.2,10.004 19.2,10.004L20.764,11.568C21.592,11.136 22.533,10.892 23.531,10.892C24.696,10.892 25.784,11.225 26.705,11.801L28.263,10.243C28.263,10.243 30.796,11.357 30.492,11.931C30.416,12.076 29.727,12.831 28.724,13.887C29.237,14.771 29.531,15.798 29.531,16.892C29.531,17.89 29.287,18.831 28.855,19.659L30.278,21.082C30.278,21.082 29.164,23.615 28.589,23.311C28.46,23.242 27.833,22.676 26.938,21.831C25.97,22.5 24.796,22.892 23.531,22.892C22.432,22.892 21.401,22.596 20.515,22.08C19.883,22.654 19.435,23.022 19.279,23.071C18.401,23.347 17.185,21.321 17.185,21.321L18.439,20.066ZM18.018,12.859C18.084,13.255 18.207,13.592 18.347,13.87C18.423,13.741 18.503,13.616 18.587,13.493C18.371,13.258 18.179,13.045 18.018,12.859ZM20.009,14.994C19.704,15.559 19.531,16.206 19.531,16.892C19.531,17.501 19.667,18.078 19.911,18.595L21.746,16.76C21.135,16.147 20.545,15.548 20.009,14.994ZM25.233,13.272C24.717,13.029 24.139,12.892 23.531,12.892C23.096,12.892 22.678,12.962 22.286,13.09L23.851,14.655L25.233,13.272ZM27.333,18.137C27.461,17.745 27.531,17.327 27.531,16.892C27.531,16.373 27.431,15.876 27.251,15.421C26.834,15.85 26.397,16.298 25.95,16.753L27.333,18.137ZM22.068,20.616C22.521,20.794 23.014,20.892 23.531,20.892C24.224,20.892 24.877,20.715 25.446,20.404C24.942,19.917 24.406,19.395 23.859,18.858C23.234,19.479 22.626,20.076 22.068,20.616ZM7.629,-4.514C5.422,-4.514 3.629,-2.722 3.629,-0.514C3.629,1.694 5.422,3.486 7.629,3.486C9.837,3.486 11.629,1.694 11.629,-0.514C11.629,-2.722 9.837,-4.514 7.629,-4.514ZM23.531,-5.108C21.323,-5.108 19.531,-3.316 19.531,-1.108C19.531,1.099 21.323,2.892 23.531,2.892C25.738,2.892 27.531,1.099 27.531,-1.108C27.531,-3.316 25.738,-5.108 23.531,-5.108Z" style="fill:rgb(224,224,224);"/>
    </g>
</svg>
