<?xml version="1.0" encoding="UTF-8" standalone="no"?><!DOCTYPE svg PUBLIC "-//W3C//DTD SVG 1.1//EN" "http://www.w3.org/Graphics/SVG/1.1/DTD/svg11.dtd"><svg width="100%" height="100%" viewBox="0 0 16 16" version="1.1" xmlns="http://www.w3.org/2000/svg" xmlns:xlink="http://www.w3.org/1999/xlink" xml:space="preserve" xmlns:serif="http://www.serif.com/" style="fill-rule:evenodd;clip-rule:evenodd;stroke-linejoin:round;stroke-miterlimit:2;"><path d="M3,1c-1.097,0 -2,0.903 -2,2l0,10c0,1.097 0.903,2 2,2l10,0c1.097,0 2,-0.903 2,-2l0,-10c0,-1.097 -0.903,-2 -2,-2l-10,0Zm0,2l10,0l0,2l-10,0l0,-2Zm0,4l10,0l0,2l-10,0l0,-2Zm0,4l10,0l0,2l-10,0l0,-2Z" style="fill:#8eef97;fill-rule:nonzero;"/><path d="M1.698,3.203l3.655,-1.701c0.24,-0.112 0.526,-0.016 0.651,0.217l1.962,3.651l2.117,-3.892c0.13,-0.238 0.427,-0.33 0.668,-0.205l3.703,1.907c0.132,0.068 0.227,0.19 0.259,0.335c0.033,0.144 -0.001,0.295 -0.091,0.413l-4.437,5.803l0.122,4.432c0.004,0.138 -0.05,0.272 -0.148,0.369c-0.099,0.098 -0.233,0.15 -0.372,0.144l-4.37,-0.175c-0.143,-0.005 -0.277,-0.072 -0.368,-0.183c-0.09,-0.112 -0.129,-0.256 -0.105,-0.398c-0,0 0.712,-4.306 0.712,-4.306l-4.151,-5.662c-0.088,-0.121 -0.118,-0.275 -0.081,-0.42c0.038,-0.145 0.138,-0.266 0.274,-0.329Zm0.974,0.649l3.915,5.341c0.08,0.108 0.112,0.244 0.09,0.377l-0.654,3.955l3.27,0.131l-0.113,-4.074c-0.003,-0.115 0.033,-0.227 0.103,-0.318l4.182,-5.469c0,0 -2.737,-1.409 -2.737,-1.409l-2.325,4.274c-0.088,0.162 -0.257,0.262 -0.441,0.261c-0.183,-0 -0.352,-0.101 -0.439,-0.263l-2.176,-4.05l-2.675,1.244Z" style="fill:#d4f9da;"/></svg>